<?xml version="1.0" standalone="no"?>
<!DOCTYPE svg PUBLIC "-//W3C//DTD SVG 20010904//EN"
 "http://www.w3.org/TR/2001/REC-SVG-20010904/DTD/svg10.dtd">
<svg version="1.0" xmlns="http://www.w3.org/2000/svg"
 width="250.000000pt" height="175.000000pt" viewBox="0 0 250.000000 175.000000"
 preserveAspectRatio="xMidYMid meet">

<g transform="translate(0.000000,175.000000) scale(0.100000,-0.100000)"
fill="#000000" stroke="none">
<path d="M415 1561 c8 -36 1 -38 -52 -16 -20 8 -38 14 -40 11 -2 -2 4 -22 13
-45 10 -26 41 -64 84 -104 62 -56 120 -135 120 -163 0 -6 -27 -28 -59 -48
-108 -66 -192 -183 -221 -305 -17 -74 -8 -211 20 -283 46 -122 163 -236 288
-280 56 -20 262 -41 262 -26 0 3 17 12 38 19 72 23 136 62 193 115 l56 55 69
-125 c37 -69 71 -123 76 -120 4 3 35 57 69 120 33 62 63 114 66 114 3 0 21
-16 40 -35 82 -84 188 -133 308 -142 228 -17 441 136 501 360 29 109 12 247
-44 351 -33 64 -134 165 -190 191 -23 11 -42 26 -42 34 0 36 46 104 112 162
45 40 78 79 90 107 11 24 18 46 15 48 -2 2 -20 -3 -40 -11 -53 -22 -60 -20
-53 16 6 31 6 31 -17 15 -45 -32 -143 -85 -192 -103 -44 -16 -75 -18 -255 -14
-356 6 -540 5 -711 -4 -123 -6 -184 -5 -230 4 -70 14 -176 59 -223 94 -56 42
-59 43 -51 8z m268 -204 c20 -9 91 -30 157 -47 158 -40 224 -65 267 -103 46
-41 63 -82 63 -154 l0 -58 -29 60 c-47 100 -96 133 -257 171 -144 33 -195 57
-249 115 -51 54 -59 80 -17 52 15 -10 44 -26 65 -36z m1210 5 c-53 -66 -110
-96 -248 -131 -70 -17 -144 -40 -165 -51 -48 -25 -107 -93 -122 -142 -16 -54
-32 -36 -24 29 15 131 75 176 311 237 77 20 169 51 205 69 36 17 67 31 69 30
3 -2 -9 -20 -26 -41z m-1074 -173 c24 -5 67 -21 96 -35 53 -26 142 -100 132
-110 -3 -3 -31 10 -63 28 -56 31 -64 33 -159 33 -92 0 -104 -2 -154 -30 -108
-60 -171 -167 -171 -290 0 -162 111 -294 273 -326 45 -9 57 -15 54 -28 -2 -9
-9 -15 -15 -13 -16 3 -15 -25 1 -31 25 -9 -67 -19 -131 -15 -226 16 -402 247
-363 474 42 240 270 396 500 343z m1094 -8 c98 -34 192 -113 235 -198 114
-223 29 -474 -197 -581 -68 -33 -83 -36 -165 -37 -144 0 -261 57 -343 168
-167 227 -67 552 200 647 72 26 196 26 270 1z m-963 -116 c160 -82 225 -256
151 -410 -54 -113 -152 -175 -277 -175 -273 0 -406 333 -209 524 64 63 130 87
225 83 46 -2 88 -10 110 -22z m402 -415 c33 -40 21 -113 -37 -226 -27 -52 -51
-94 -55 -94 -10 0 -87 142 -104 193 -23 69 -20 94 14 129 29 29 34 30 97 26
55 -3 69 -8 85 -28z m-304 -131 c-30 -49 -193 -147 -212 -128 -9 9 7 59 18 59
31 0 117 33 157 60 53 36 52 35 37 9z"/>
<path d="M1526 860 c-8 -44 -52 -52 -82 -17 l-23 27 -20 -26 c-70 -89 41 -215
142 -163 38 19 57 52 57 97 0 51 -10 73 -43 95 -24 16 -25 15 -31 -13z"/>
<path d="M938 873 c-107 -67 -24 -243 97 -203 75 25 101 119 50 177 -18 21
-24 24 -25 11 0 -22 -27 -48 -50 -48 -28 0 -52 30 -47 57 2 12 4 23 3 23 0 0
-13 -8 -28 -17z"/>
<path d="M803 256 c5 -16 27 -19 27 -3 0 7 -7 14 -15 14 -9 0 -14 -5 -12 -11z"/>
<path d="M813 213 c-18 -7 -16 -23 2 -23 8 0 15 7 15 15 0 8 -1 15 -2 14 -2 0
-9 -3 -15 -6z"/>
<path d="M812 131 c-10 -6 -10 -10 3 -21 13 -11 15 -9 15 9 0 24 0 24 -18 12z"/>
<path d="M805 50 c4 -6 11 -8 16 -5 14 9 11 15 -7 15 -8 0 -12 -5 -9 -10z"/>
</g>
</svg>
