<svg xmlns="http://www.w3.org/2000/svg" version="1.1" xmlns:xlink="http://www.w3.org/1999/xlink" xmlns:svgjs="http://svgjs.com/svgjs" width="128.000000pt" height="128.000000pt"><svg version="1.0" xmlns="http://www.w3.org/2000/svg" width="128.000000pt" height="128.000000pt" viewBox="0 0 128.000000 128.000000" preserveAspectRatio="xMidYMid meet">

<g transform="translate(0.000000,128.000000) scale(0.100000,-0.100000)">
<path d="M604 1260 c-30 -12 -54 -49 -54 -84 0 -20 11 -39 35 -62 29 -27 35
-40 35 -73 l0 -41 -229 0 c-216 0 -230 -1 -255 -21 -17 -13 -28 -34 -32 -60
-6 -34 -10 -39 -34 -39 -15 0 -36 -10 -48 -23 -21 -23 -22 -31 -22 -259 l0
-237 26 -20 c15 -12 37 -21 49 -21 18 0 24 -7 29 -39 9 -60 43 -81 127 -81
l69 0 0 -89 c0 -50 4 -93 10 -96 5 -3 84 37 175 90 l165 95 234 0 c221 0 235
1 260 21 17 13 28 34 32 60 5 32 11 39 29 39 12 0 34 9 49 21 l26 20 0 238 c0
235 0 238 -23 259 -13 12 -35 22 -49 22 -22 0 -26 5 -32 39 -4 26 -15 47 -32
60 -25 20 -39 21 -255 21 l-229 0 0 41 c0 33 6 46 35 73 25 24 35 42 35 64 0
60 -71 106 -126 82z m71 -50 c35 -39 -3 -91 -55 -75 -28 9 -37 51 -15 75 10
11 26 20 35 20 9 0 25 -9 35 -20z m449 -266 c14 -13 16 -58 16 -341 0 -290 -2
-328 -17 -345 -15 -16 -36 -18 -250 -18 l-234 0 -147 -85 -147 -85 -5 83 -5
82 -80 3 c-124 5 -115 -23 -115 363 0 284 2 330 16 343 14 14 71 16 484 16
413 0 470 -2 484 -16z m-1024 -344 c0 -253 0 -251 -44 -234 -14 5 -16 35 -16
233 0 125 3 231 7 234 3 4 17 7 30 7 l23 0 0 -240z m1138 6 c3 -240 2 -245
-40 -246 -17 0 -18 18 -18 241 l0 240 28 -3 27 -3 3 -229z"></path>
<path d="M335 757 c-28 -28 -35 -43 -35 -75 0 -77 74 -127 143 -98 102 42 80
188 -30 203 -39 5 -46 2 -78 -30z m112 -29 c60 -57 -15 -149 -80 -97 -33 25
-36 70 -7 99 26 26 58 25 87 -2z"></path>
<path d="M834 781 c-12 -5 -31 -22 -43 -37 -61 -77 21 -195 115 -164 75 25 99
112 47 170 -30 33 -82 46 -119 31z m86 -51 c29 -29 26 -74 -7 -99 -64 -51
-141 43 -81 99 28 25 62 26 88 0z"></path>
<path d="M490 435 c0 -27 78 -55 150 -55 72 0 150 28 150 55 0 19 -18 19 -63
0 -20 -8 -59 -15 -87 -15 -28 0 -67 7 -87 15 -45 19 -63 19 -63 0z"></path>
</g>
</svg><style>@media (prefers-color-scheme: light) { :root { filter: none; } }
</style></svg>